{"title":"Day of the Woman 1978 DVDrip English Klam","uid":10557539,"size":1368479605,"categoryP":"video","categoryS":"movies","magnet":"?xt=urn:btih:10cadbefb83097528a0380cbf86e66bf8e5e56b0&amp;dn=Day+of+the+Woman+1978+DVDrip+English+Klam&amp;tr=udp%3A%2F%2Ftracker.openbittorrent.com%3A80&amp;tr=udp%3A%2F%2Fopen.demonii.com%3A1337&amp;tr=udp%3A%2F%2Ftracker.coppersurfer.tk%3A6969&amp;tr=udp%3A%2F%2Fexodus.desync.com%3A6969","seeders":2,"leechers":1,"uploader":"Klambake","files":-1,"time":1405417891,"description":" &lt;a href=&quot;http://i.imgur.com/pJnKP6k.jpg&quot; rel=&quot;nofollow&quot; target=&quot;_NEW&quot;&gt;http://i.imgur.com/pJnKP6k.jpg&lt;/a&gt;\n\nWith: Camille Keaton, Eron Tabor and Richard Pace\n\nAuteur Jennifer werkt al een tijdje aan een nieuwe roman en is op zoek naar een goed einde. Ze heeft geen inspiratie meer en wil even de stad uit om te herbronnen. Ze huurt een huisje langs een rivier en weet meteen de aandacht te trekken van de mannelijke bevolking in het dorp. Kort nadien wordt ze door enkele van hen vastgehouden en verkracht. Maar het blijft hier niet bij: ze wordt meermaals verkracht en bovendien wordt haar roman vernield. Jennifer plant de ultieme wraak op haar belagers...\n\nAn aspiring writer is repeatedly gang-raped, humiliated, and left for dead by four men whom she systematically hunts down to seek revenge.\n &lt;a href=&quot;\nhttp://www.imdb.com/title/tt0077713&quot; rel=&quot;nofollow&quot; target=&quot;_NEW&quot;&gt;\nhttp://www.imdb.com/title/tt0077713&lt;/a&gt;\t\n\n--------------------- Dutch Friends 4ever ---------------------\n---------------------------------------------------------------\n- Bezoek ook eens mijn vrienden op: &lt;a href=&quot; http://www.Film-Test.nl&quot; rel=&quot;nofollow&quot; target=&quot;_NEW&quot;&gt; http://www.Film-Test.nl&lt;/a&gt; --\n----- voor mijn Nederlandse Sync. ondertitels ---- en meer ----\n------- http://www.Film-Test.nl ---- Over Films en meer -------\n---------------------------------------------------------------\n &lt;a href=&quot;\nhttp://i.imgur.com/92p3Ncz.jpg&quot; rel=&quot;nofollow&quot; target=&quot;_NEW&quot;&gt;\nhttp://i.imgur.com/92p3Ncz.jpg&lt;/a&gt; &lt;a href=&quot;\nhttp://i.imgur.com/QqPvh6Q.jpg&quot; rel=&quot;nofollow&quot; target=&quot;_NEW&quot;&gt;\nhttp://i.imgur.com/QqPvh6Q.jpg&lt;/a&gt; &lt;a href=&quot;\nhttp://i.imgur.com/TXukmxA.jpg&quot; rel=&quot;nofollow&quot; target=&quot;_NEW&quot;&gt;\nhttp://i.imgur.com/TXukmxA.jpg&lt;/a&gt;\n\nGeneral:\n\nComplete name                            : Day of the WomanDay of the Woman.avi\nFormat                                   : AVI\nFormat/Info                              : Audio Video Interleave\nFile size                                : 1.27 GiB\nDuration                                 : 1h 36mn\nOverall bit rate                         : 1 878 Kbps\n\nVideo:\n\nFormat                                   : MPEG-4 Visual\nFormat profile                           : Simple@L3\nFormat settings, BVOP                    : No\nFormat settings, QPel                    : No\nFormat settings, GMC                     : No warppoints\nFormat settings, Matrix                  : Default (H.263)\nCodec ID                                 : XVID\nCodec ID/Hint                            : XviD\nDuration                                 : 1h 36mn\nSource duration                          : 1h 36mn\nBit rate                                 : 1 643 Kbps\nWidth                                    : 704 pixels\nHeight                                   : 396 pixels\nDisplay aspect ratio                     : 16:9\nFrame rate                               : 25.000 fps\nColor space                              : YUV\nChroma subsampling                       : 4:2:0\nBit depth                                : 8 bits\nScan type                                : Progressive\nCompression mode                         : Lossy\nBits/(Pixel*Frame)                       : 0.236\nStream size                              : 1.11 GiB (87%)\nWriting library                          : XviD 1.1.2 (UTC 2006-11-01)\n\nAudio:\n\nFormat                                   : AC-3\nFormat/Info                              : Audio Coding 3\nMode extension                           : CM (complete main)\nFormat settings, Endianness              : Big\nCodec ID                                 : 2000\nDuration                                 : 1h 36mn\nBit rate mode                            : Constant\nBit rate                                 : 224 Kbps\nChannel(s)                               : 2 channels\nChannel positions                        : Front: L R\nSampling rate                            : 48.0 KHz\nBit depth                                : 16 bits\nCompression mode                         : Lossy\nStream size                              : 155 MiB (12%)\nAlignment                                : Aligned on interleaves\nInterleave, duration                     : 32 ms (0.80 video frame)\n\n\n","torrent":{"xt":"urn:btih:10cadbefb83097528a0380cbf86e66bf8e5e56b0","amp;dn":"Day+of+the+Woman+1978+DVDrip+English+Klam","amp;tr":["udp%3A%2F%2Ftracker.openbittorrent.com%3A80","udp%3A%2F%2Fopen.demonii.com%3A1337","udp%3A%2F%2Ftracker.coppersurfer.tk%3A6969","udp%3A%2F%2Fexodus.desync.com%3A6969"],"infoHash":"10cadbefb83097528a0380cbf86e66bf8e5e56b0","infoHashBuffer":{"type":"Buffer","data":[16,202,219,239,184,48,151,82,138,3,128,203,248,110,102,191,142,94,86,176]},"announce":[],"urlList":[]}}